# xmcd
#
# Track frame offsets:
#	150
#	16287
#	32649
#	45713
#	65119
#	85316
#	103579
#	118810
#	137993
#	153683
#	179610
#	206939
#	224146
#	235676
#
# Disc length: 3314 seconds
# Revision: 1
# Processed by: cddbd v1.5.2PL0 Copyright (c) Steve Scherf et al.
# Submitted via: dBpowerAMP V12.0
#
DISCID=da0cf00e
DTITLE=Keziah Jones - Captain Rugged
DYEAR=2013
DGENRE=Blufunk
TTITLE0=Afronewave
TTITLE1=Nollywoodoo
TTITLE2=Hypothetical
TTITLE3=Lunar
TTITLE4=Utopia
TTITLE5=Falling
TTITLE6=Memory
TTITLE7=Rugged
TTITLE8=+ The Free
TTITLE9=Laughter
TTITLE10=Praise
TTITLE11=Angels and Devils
TTITLE12=Postcolonialmothership
TTITLE13=Ancestors
EXTD=
EXTT0=
EXTT1=
EXTT2=
EXTT3=
EXTT4=
EXTT5=
EXTT6=
EXTT7=
EXTT8=
EXTT9=
EXTT10=
EXTT11=
EXTT12=
EXTT13=
PLAYORDER=
